<svg width="100%" height="100%" id="svg" viewBox="0 0 1440 500" xmlns="http://www.w3.org/2000/svg" class="transition duration-300 ease-in-out delay-150"><defs><linearGradient id="gradient" x1="13%" y1="17%" x2="87%" y2="83%"><stop offset="5%" stop-color="#0693e3"></stop><stop offset="95%" stop-color="#eb144c"></stop></linearGradient></defs><path d="M 0,500 C 0,500 0,250 0,250 C 57.6214359326692,282.2507729302645 115.2428718653384,314.501545860529 182,324 C 248.7571281346616,333.498454139471 324.6499484713156,320.2445894881484 401,294 C 477.3500515286844,267.7554105118516 554.1573342493988,228.52009618687737 620,216 C 685.8426657506012,203.47990381312263 740.7207145310889,217.6750257643422 810,241 C 879.2792854689111,264.3249742356578 962.9598076262453,296.779800755754 1030,284 C 1097.0401923737547,271.220199244246 1147.44005496393,213.20577121264168 1213,200 C 1278.55994503607,186.79422878735832 1359.279972518035,218.39711439367915 1440,250 C 1440,250 1440,500 1440,500 Z" stroke="none" stroke-width="0" fill="url(#gradient)" fill-opacity="1" class="transition-all duration-300 ease-in-out delay-150 path-0"></path></svg>